<?xml version="1.0" encoding="UTF-8"?>
<svg width="730px" height="260px" viewBox="0 0 730 260" version="1.1" xmlns="http://www.w3.org/2000/svg" xmlns:xlink="http://www.w3.org/1999/xlink">
    <!-- Generator: Sketch 52.1 (67048) - http://www.bohemiancoding.com/sketch -->
    <title>Group</title>
    <desc>Created with Sketch.</desc>
    <g id="Page-1" stroke="none" stroke-width="1" fill="none" fill-rule="evenodd">
        <g id="Group">
            <rect id="Rectangle" fill="#3340CF" fill-rule="nonzero" x="0" y="0" width="730" height="260"></rect>
            <text id="React-Native-Log-iOS" font-family="HelveticaNeue, Helvetica Neue" font-size="39" font-weight="normal" letter-spacing="1.3" fill="#FFFFFF">
                <tspan x="281.066" y="96">React Native Log iOS</tspan>
            </text>
            <g id="React-icon" transform="translate(51.000000, 53.000000)" fill="#FFFFFF">
                <path d="M173,77.5177386 C173,65.9876402 158.647982,55.0606546 136.643905,48.2845045 C141.721769,25.7209888 139.464941,7.76951247 129.520791,2.02220188 C127.2287,0.674067292 124.548716,0.0354772259 121.621892,0.0354772259 L121.621892,7.9468986 C123.243987,7.9468986 124.548716,8.26619364 125.641867,8.86930648 C130.437627,11.6365301 132.518141,22.1732662 130.896046,35.7255665 C130.508153,39.0604257 129.87342,42.5726711 129.097636,46.1558709 C122.186099,44.4529641 114.639829,43.1403067 106.705667,42.2888533 C101.945169,35.7255665 97.0083571,29.7653925 92.0362821,24.5502403 C103.532002,13.8006409 114.322462,7.91142138 121.657155,7.91142138 L121.657155,0 C121.657155,0 121.657155,0 121.657155,0 C111.959845,0 99.2651855,6.95353628 86.4294741,19.0157931 C73.5937627,7.02449073 60.8991031,0.141908904 51.2017937,0.141908904 L51.2017937,8.05333028 C58.501223,8.05333028 69.3269466,13.9070726 80.8226661,24.5857176 C75.8858541,29.8008698 70.949042,35.7255665 66.2590705,42.2888533 C58.2896453,43.1403067 50.7433755,44.4529641 43.8318386,46.1913481 C43.0207909,42.6436255 42.4213208,39.2023346 41.9981655,35.9029526 C40.3408072,22.3506523 42.3860579,11.8139162 47.1465552,9.01121538 C48.2044435,8.37262531 49.5796983,8.08880751 51.2017937,8.08880751 L51.2017937,0.17738613 C51.2017937,0.17738613 51.2017937,0.17738613 51.2017937,0.17738613 C48.2397065,0.17738613 45.5597228,0.815976196 43.2323685,2.16411078 C33.3234815,7.91142138 31.101916,25.8274205 36.2150428,48.3199817 C14.2814921,55.1316091 0,66.0231174 0,77.5177386 C0,89.047837 14.3520179,99.9748226 36.3560946,106.750973 C31.2782307,129.314488 33.5350591,147.265965 43.4792091,153.013275 C45.7713004,154.36141 48.4512841,155 51.4133714,155 C61.1106808,155 73.8053404,148.046464 86.6410518,135.984207 C99.4767631,147.975509 112.171423,154.858091 121.868732,154.858091 C124.830819,154.858091 127.510803,154.219501 129.838157,152.871366 C139.747044,147.124056 141.96861,129.208057 136.855483,106.715496 C158.718508,99.9393454 173,89.0123598 173,77.5177386 Z M127.087648,53.8544289 C125.782919,58.4309911 124.160823,63.1494621 122.32715,67.8679332 C120.88137,65.0297551 119.365063,62.191577 117.707705,59.3533989 C116.085609,56.5152209 114.357725,53.7479973 112.629841,51.0517281 C117.637179,51.7967498 122.468202,52.7191577 127.087648,53.8544289 Z M110.93722,91.6376745 C108.18671,96.4271 105.365675,100.968185 102.43885,105.189975 C97.1846718,105.651179 91.8599674,105.899519 86.5,105.899519 C81.1752956,105.899519 75.8505911,105.651179 70.6316755,105.225452 C67.7048512,101.003662 64.8485528,96.4980545 62.0980432,91.7441062 C59.4180595,87.0965896 56.9849164,82.3781186 54.763351,77.6241703 C56.9496535,72.870222 59.4180595,68.1162737 62.0627803,63.4687572 C64.8132898,58.6793317 67.6343253,54.1382467 70.5611496,49.9164569 C75.8153282,49.4552529 81.1400326,49.2069123 86.5,49.2069123 C91.8247044,49.2069123 97.1494089,49.4552529 102.368325,49.8809796 C105.295149,54.1027695 108.151447,58.6083772 110.901957,63.3623255 C113.58194,68.0098421 116.015084,72.7283131 118.236649,77.4822614 C116.015084,82.2362097 113.58194,86.9901579 110.93722,91.6376745 Z M122.32715,87.0256352 C124.231349,91.7795834 125.853445,96.5335317 127.193437,101.145571 C122.573991,102.280842 117.707705,103.238727 112.665104,103.983749 C114.392988,101.252003 116.120872,98.4493019 117.742968,95.5756466 C119.365063,92.7374685 120.88137,89.8638132 122.32715,87.0256352 Z M86.5705259,124.879835 C83.2910722,121.474022 80.0116184,117.677958 76.7674276,113.527123 C79.9410925,113.669032 83.1852833,113.775463 86.4647371,113.775463 C89.7794537,113.775463 93.0589075,113.704509 96.2678353,113.527123 C93.0941704,117.677958 89.8147167,121.474022 86.5705259,124.879835 Z M60.334896,103.983749 C55.3275581,103.238727 50.4965349,102.31632 45.8770893,101.181048 C47.1818182,96.6044862 48.8039136,91.8860151 50.6375866,87.1675441 C52.0833673,90.0057221 53.5996739,92.8439002 55.2570322,95.6820783 C56.9143905,98.5202564 58.6070118,101.28748 60.334896,103.983749 Z M86.3942112,30.155642 C89.6736649,33.5614557 92.9531186,37.3575189 96.1973094,41.5083543 C93.0236445,41.3664454 89.7794537,41.2600137 86.5,41.2600137 C83.1852833,41.2600137 79.9058296,41.3309682 76.6969018,41.5083543 C79.8705667,37.3575189 83.1500204,33.5614557 86.3942112,30.155642 Z M60.2996331,51.0517281 C58.5717489,53.7834745 56.8438647,56.5861753 55.2217693,59.4598306 C53.5996739,62.2980087 52.0833673,65.1361868 50.6375866,67.9743648 C48.7333877,63.2204166 47.1112923,58.4664683 45.7713004,53.8544289 C50.390746,52.7546349 55.2570322,51.7967498 60.2996331,51.0517281 Z M28.3866694,95.4692149 C15.9035874,90.1121538 7.82837342,83.0876631 7.82837342,77.5177386 C7.82837342,71.9478141 15.9035874,64.8878462 28.3866694,59.5662623 C31.4192825,58.2536049 34.7339992,57.0828565 38.1545047,55.9830625 C40.1644925,62.9365988 42.8092132,70.1739528 46.0886669,77.5886931 C42.8444762,84.9679561 40.2350183,92.1698329 38.2602935,99.087892 C34.7692621,97.988098 31.4545455,96.7818723 28.3866694,95.4692149 Z M47.3581329,146.166171 C42.5623726,143.398947 40.4818589,132.862211 42.1039543,119.309911 C42.4918467,115.975051 43.1265797,112.462806 43.9023645,108.879606 C50.8139013,110.582513 58.3601712,111.895171 66.2943335,112.746624 C71.0548308,119.309911 75.9916429,125.270085 80.9637179,130.485237 C69.4679984,141.234836 58.6775377,147.124056 51.3428455,147.124056 C49.756013,147.088579 48.4160212,146.769284 47.3581329,146.166171 Z M131.001834,119.132525 C132.659193,132.684825 130.613942,143.221561 125.853445,146.024262 C124.795556,146.662852 123.420302,146.94667 121.798206,146.94667 C114.498777,146.94667 103.673053,141.092927 92.1773339,130.414282 C97.1141459,125.19913 102.050958,119.274434 106.740929,112.711147 C114.710355,111.859693 122.256625,110.547036 129.168161,108.808652 C129.979209,112.391852 130.613942,115.833143 131.001834,119.132525 Z M144.578068,95.4692149 C141.545455,96.7818723 138.230738,97.9526207 134.810232,99.0524147 C132.800245,92.0988785 130.155524,84.8615244 126.87607,77.4467842 C130.120261,70.0675212 132.729719,62.8656443 134.704444,55.9475853 C138.195475,57.0473793 141.510192,58.2536049 144.613331,59.5662623 C157.096413,64.9233234 165.171627,71.9478141 165.171627,77.5177386 C165.136364,83.0876631 157.06115,90.147631 144.578068,95.4692149 Z" id="Shape" fill-rule="nonzero"></path>
                <circle id="Oval" cx="87" cy="78" r="16"></circle>
            </g>
        </g>
    </g>
</svg>